<svg width="114" height="34" viewBox="0 0 114 34" fill="none" xmlns="http://www.w3.org/2000/svg">
<rect width="114" height="34" fill="none"/>
<g filter="url(#filter0_dd_0_1)">
<path d="M2.88943 0.696983C3.72244 0.731828 4.45143 0.752551 5.07639 0.759155C5.70163 0.739717 6.20955 0.732062 6.60016 0.736189L7.73291 0.748158C8.01962 0.725144 8.3713 0.715838 8.78795 0.72024C9.15251 0.724092 9.59519 0.728769 10.116 0.734272C10.6368 0.739774 11.2356 0.759122 11.9124 0.792316C12.113 1.52364 12.3398 2.24223 12.5927 2.94806C12.872 3.62813 13.113 4.24269 13.3155 4.79174C13.569 5.4455 13.823 6.06019 14.0773 6.63583C14.3317 7.21146 14.6368 7.90483 14.9929 8.71593C15.2982 9.39628 15.667 10.2336 16.0992 11.2278C16.5317 12.1959 17.0408 13.3081 17.6266 14.5644C17.9215 13.7602 18.1898 13.0208 18.4313 12.3462C18.6988 11.6719 18.9264 11.0883 19.1139 10.5955C19.3283 10.0248 19.503 9.50581 19.6382 9.03846C19.7733 8.57111 19.9226 7.99974 20.086 7.32435C20.2222 6.75284 20.3728 6.06429 20.5375 5.25869C20.7283 4.45337 20.9205 3.51785 21.1141 2.45212C21.8693 2.4601 22.5463 2.46726 23.1452 2.47359C23.7442 2.47991 24.2651 2.4724 24.7081 2.45103C25.2028 2.45626 25.6456 2.44792 26.0365 2.426C26.4532 2.43041 27.0133 2.41028 27.7169 2.36563C28.3164 2.31988 29.111 2.28921 30.1009 2.27362C31.117 2.23227 32.3676 2.18038 33.8527 2.11794C33.3017 2.50277 32.8549 2.88869 32.5123 3.27572C32.1959 3.63698 31.9451 3.95987 31.7598 4.24438C31.5479 4.58071 31.4143 4.90483 31.3589 5.21677C31.3041 5.47662 31.2457 6.07499 31.1837 7.01189C31.1477 7.94906 31.0968 9.06838 31.031 10.3698C30.9915 11.6455 30.951 13.0124 30.9095 14.4703C30.8941 15.9286 30.8926 17.3089 30.9049 18.6112C30.9171 19.9134 30.9442 21.0466 30.9861 22.0106C31.0543 22.9489 31.1522 23.5489 31.2796 23.8107C31.4586 24.1251 31.7021 24.4923 32.0102 24.9122C32.2928 25.2798 32.653 25.7003 33.0907 26.1737C33.5545 26.6474 34.1609 27.1747 34.91 27.7555C33.7116 27.795 32.7087 27.8234 31.9011 27.8409C31.1197 27.8587 30.4684 27.8779 29.9473 27.8984C29.3481 27.9181 28.8662 27.9261 28.5017 27.9222C28.1111 27.9181 27.5771 27.9255 26.8998 27.9444C26.3006 27.9641 25.5059 27.9947 24.5159 28.0364C23.5261 28.052 22.2495 28.0906 20.6863 28.1522C21.0553 27.7394 21.3982 27.3263 21.7151 26.913C22.032 26.4996 22.2963 26.1248 22.5082 25.7885C22.7728 25.4006 22.9981 25.0254 23.1842 24.6627C23.3717 24.1699 23.5245 23.273 23.6424 21.9721C23.7584 20.8535 23.8534 19.2528 23.9275 17.1702C24.0019 15.0615 24.0317 12.2361 24.0171 8.69408C23.5138 9.4961 23.0625 10.2987 22.6634 11.1018C22.2906 11.8791 21.9575 12.5918 21.6642 13.2398C21.3437 13.9917 21.0496 14.7178 20.7818 15.4181C20.5137 16.1445 20.2317 16.9488 19.9359 17.8312C19.6675 18.5836 19.3456 19.4787 18.97 20.5164C18.6205 21.5545 18.2178 22.6961 17.7619 23.9413L16.2768 24.0038C16.0794 22.96 15.881 22.0203 15.6815 21.1848C15.4823 20.3233 15.2816 19.592 15.0796 18.9909C14.8527 18.2853 14.625 17.6579 14.3964 17.1085C14.1417 16.5589 13.8618 15.944 13.5564 15.2636C13.276 14.6877 12.9317 14.0069 12.5233 13.2213C12.1409 12.436 11.6944 11.5588 11.1838 10.5899C10.8953 13.2432 10.7163 15.4029 10.6466 17.0689C10.5772 18.7089 10.5637 19.9849 10.6061 20.8968C10.6467 21.9911 10.7164 22.7861 10.8153 23.282C10.9669 23.7263 11.209 24.2237 11.5418 24.7741C11.8233 25.2459 12.208 25.8099 12.6958 26.4661C13.2101 27.0966 13.8666 27.8067 14.6656 28.5964C14.0928 28.5903 13.4938 28.584 12.8689 28.5774C12.2439 28.5708 11.6709 28.5778 11.1498 28.5983C10.5246 28.6177 9.91248 28.6243 9.31355 28.618C8.68831 28.6374 7.95877 28.6688 7.12493 28.712C6.39526 28.7564 5.52236 28.7993 4.50624 28.8406C3.49012 28.882 2.31735 28.9607 0.987924 29.0769C1.56466 28.7184 2.0371 28.3718 2.40524 28.0371C2.77365 27.6764 3.06354 27.354 3.27488 27.0697C3.53886 26.7339 3.73774 26.3975 3.87152 26.0603C3.95184 25.8528 4.02176 25.3978 4.08126 24.6953C4.16681 23.993 4.24099 23.1344 4.3038 22.1194C4.39265 21.1046 4.4567 19.9724 4.49595 18.7228C4.56124 17.4734 4.61364 16.2109 4.65316 14.9352C4.719 13.6337 4.7714 12.3712 4.81037 11.1475C4.84962 9.89789 4.87447 8.7783 4.88493 7.78877C4.9217 6.77348 4.94366 5.92731 4.95081 5.25027C4.95797 4.57322 4.9625 4.14356 4.96443 3.96128C4.89044 3.56985 4.77738 3.17801 4.62527 2.78575C4.49864 2.44585 4.29404 2.09211 4.01145 1.72452C3.72886 1.35693 3.35485 1.01442 2.88943 0.696983ZM34.6006 1.57894C35.3802 1.74343 36.043 1.86763 36.589 1.95153C37.135 2.03543 37.59 2.10534 37.954 2.16127C38.3701 2.21776 38.7214 2.24751 39.0078 2.25054C39.2943 2.25356 39.685 2.24467 40.1801 2.22386C40.623 2.20249 41.183 2.19539 41.8601 2.20254C42.5374 2.18366 43.3971 2.15367 44.4393 2.1126C43.836 2.52291 43.3505 2.86937 42.9829 3.15196C42.6153 3.43455 42.3393 3.67904 42.1548 3.88544C41.918 4.11732 41.7727 4.31111 41.719 4.4668C41.6658 4.57041 41.6096 4.96047 41.5503 5.63696C41.4914 6.28742 41.4305 7.12015 41.3677 8.13517C41.3312 9.12442 41.3194 10.2442 41.3322 11.4944C41.3453 12.7185 41.3972 13.9691 41.4879 15.2462C41.6046 16.5236 41.7738 17.7624 41.9955 18.9627C42.2175 20.137 42.5191 21.1689 42.9004 22.0584C43.3076 22.9482 43.7951 23.6435 44.3628 24.1443C44.9565 24.6454 45.6706 24.8352 46.5053 24.7138C47.6007 24.5691 48.4917 24.0447 49.1783 23.1404C49.865 22.2361 50.3845 21.1348 50.7368 19.8364C51.1151 18.5382 51.3511 17.1474 51.4449 15.6639C51.5651 14.1547 51.5929 12.7487 51.5286 11.4458C51.4905 10.1172 51.3985 8.97036 51.2524 8.00522C51.1064 7.04008 50.9695 6.43964 50.8417 6.20391C50.6882 5.94185 50.4831 5.64019 50.2263 5.29892C50.021 5.01027 49.751 4.68188 49.4163 4.31374C49.0819 3.91956 48.6957 3.49879 48.2577 3.05143C49.0647 3.086 49.7935 3.11974 50.4443 3.15266C51.0953 3.15954 51.642 3.17834 52.0844 3.20906C52.6049 3.2406 53.0734 3.27159 53.4897 3.30203C53.9061 3.33248 54.4265 3.37704 55.0509 3.43572C55.5712 3.49331 56.2346 3.5524 57.0413 3.61301C57.8741 3.6739 58.8628 3.76247 60.0074 3.87874C59.5637 3.97822 59.1976 4.11759 58.9092 4.29685C58.6469 4.47638 58.4365 4.66948 58.2781 4.87615C58.0933 5.10858 57.9606 5.34157 57.88 5.57511C57.7997 5.7826 57.728 6.40688 57.6649 7.44794C57.6281 8.46323 57.563 9.69959 57.4695 11.157C57.4023 12.5887 57.2946 14.1501 57.1465 15.8414C56.9987 17.5066 56.7736 19.0928 56.4712 20.6001C56.1948 22.1077 55.8291 23.4451 55.3741 24.6122C54.945 25.7796 54.3897 26.5811 53.7079 27.0166C52.7115 27.6572 51.665 28.1149 50.5683 28.3898C49.4718 28.6386 48.3636 28.7701 47.2436 28.7843C46.1239 28.7725 45.0181 28.6697 43.9264 28.4758C42.8609 28.2562 41.8349 27.998 40.8484 27.7011C39.8362 27.3779 38.9973 26.6659 38.3318 25.565C37.6924 24.4644 37.1852 23.1699 36.8102 21.6815C36.4616 20.1673 36.2053 18.55 36.0412 16.8294C35.9033 15.083 35.8169 13.4023 35.7819 11.7873C35.7729 10.1725 35.7883 8.71428 35.8281 7.41254C35.8942 6.08504 35.9439 5.08291 35.9771 4.40614C35.9807 4.06761 35.932 3.74156 35.8312 3.42798C35.7561 3.14071 35.616 2.83973 35.411 2.52505C35.2323 2.1846 34.9622 1.86923 34.6006 1.57894ZM84.727 0.975675C84.3536 1.80511 84.0204 2.5308 83.7274 3.15274C83.4343 3.77467 83.1813 4.30589 82.9683 4.74637C82.7287 5.23866 82.5287 5.67928 82.3684 6.06823C82.2351 6.3533 82.0618 6.74211 81.8482 7.23467C81.6352 7.67516 81.3686 8.25831 81.0484 8.98413C80.7546 9.68419 80.3673 10.5916 79.8868 11.7064C79.6626 10.7404 79.3851 9.89109 79.0543 9.15839C78.7235 8.42568 78.3656 7.78385 77.9808 7.23288C77.596 6.68191 77.184 6.23482 76.7449 5.89162C76.3321 5.52265 75.9186 5.21879 75.5045 4.98003C74.5465 4.44904 73.534 4.15187 72.4669 4.08851C71.0599 4.15177 69.9507 4.37444 69.1393 4.75652C68.3542 5.11282 67.7768 5.53643 67.407 6.02735C67.0375 6.49222 66.837 6.98492 66.8054 7.50545C66.7742 7.99994 66.8349 8.41727 66.9875 8.75744C67.1144 9.0713 67.5663 9.44068 68.3431 9.86558C69.1459 10.2907 70.1043 10.7827 71.2183 11.3413C72.3586 11.8743 73.5761 12.4861 74.871 13.1769C76.1661 13.8417 77.3562 14.5835 78.4414 15.4023C79.5529 16.1953 80.4813 17.0645 81.2265 18.01C81.9981 18.9296 82.4174 19.9107 82.4846 20.9531C82.5486 22.282 82.523 23.4797 82.4075 24.5462C82.2921 25.6128 81.9179 26.5203 81.2849 27.2689C80.652 28.0175 79.6692 28.6061 78.3364 29.0347C77.0298 29.4637 75.2171 29.718 72.8984 29.7976C70.5016 29.8765 68.5369 29.7255 67.0044 29.3447C65.4719 28.9639 64.2272 28.4559 63.2703 27.8208C62.3395 27.1859 61.6437 26.4884 61.1829 25.7283C60.7482 24.9685 60.4303 24.2489 60.2291 23.5697C60.0282 22.8644 59.8913 22.264 59.8184 21.7684C59.7458 21.2467 59.6189 20.9329 59.4377 20.8268C59.2308 20.6944 59.0237 20.575 58.8165 20.4686C58.6353 20.3626 58.441 20.2694 58.2335 20.189C58.0262 20.0827 57.8189 19.9893 57.6114 19.909L68.9973 18.1933C68.3408 18.7072 67.828 19.1836 67.4587 19.6224C67.1155 20.0615 66.851 20.4494 66.6651 20.786C66.4527 21.1744 66.3056 21.5374 66.2239 21.8751C66.168 22.2391 66.2803 22.6961 66.561 23.2459C66.8417 23.7958 67.2266 24.3338 67.7159 24.8598C68.2315 25.3601 68.826 25.783 69.4995 26.1287C70.1729 26.4744 70.8745 26.625 71.6042 26.5806C72.5164 26.5122 73.2609 26.2987 73.8376 25.9401C74.4146 25.5556 74.8494 25.0784 75.1419 24.5085C75.4604 23.939 75.6493 23.3159 75.7085 22.6394C75.7678 21.9629 75.7097 21.2982 75.5343 20.6453C75.3852 19.9666 75.1314 19.3389 74.7729 18.7621C74.4147 18.1594 73.9902 17.66 73.4996 17.2642C73.0602 16.9471 72.3733 16.6403 71.4389 16.344C70.5305 16.0479 69.5052 15.7245 68.363 15.3739C67.2469 15.0236 66.0922 14.6207 64.899 14.1654C63.7319 13.7103 62.67 13.1522 61.7134 12.491C60.7829 11.8301 60.0358 11.0539 59.4723 10.1625C58.9348 9.27135 58.7377 8.2015 58.8811 6.95295C58.9966 5.8864 59.3445 5.00461 59.9248 4.30758C60.5314 3.58478 61.2796 3.01973 62.1694 2.61245C63.0855 2.17939 64.0914 1.86448 65.1873 1.66772C66.3093 1.47122 67.4433 1.36601 68.5893 1.35208C69.7617 1.31238 70.9073 1.3375 72.0262 1.42745C73.1711 1.51768 74.1988 1.61969 75.1091 1.73348C76.0194 1.84727 76.7865 1.95955 77.4103 2.07031C78.0605 2.15531 78.4636 2.21165 78.6195 2.23935C79.296 2.29858 79.9732 2.29271 80.6511 2.22175C81.2506 2.17599 81.9028 2.06569 82.6078 1.89084C83.3392 1.69022 84.0455 1.38517 84.727 0.975675ZM88.8447 3.16774C90.1459 3.25962 91.2389 3.33627 92.1237 3.39771C93.0348 3.43338 93.7897 3.4674 94.3884 3.49976C95.0651 3.53296 95.638 3.53901 96.107 3.51792C96.576 3.49683 97.2147 3.43847 98.023 3.34284C98.7009 3.27188 99.6005 3.16419 100.722 3.01978C101.87 2.8496 103.291 2.63023 104.987 2.36167C104.382 2.95427 103.907 3.49616 103.563 3.98735C103.246 4.45277 102.994 4.85378 102.808 5.19038C102.596 5.60482 102.449 5.95485 102.368 6.24047C102.313 6.50032 102.358 7.15188 102.503 8.19513C102.649 9.23839 102.857 10.4776 103.128 11.9129C103.4 13.3221 103.696 14.8357 104.018 16.4538C104.339 18.0458 104.662 19.5467 104.986 20.9565C105.31 22.3402 105.597 23.5282 105.847 24.5204C106.123 25.4869 106.325 26.062 106.453 26.2457C106.838 26.7967 107.082 27.1638 107.184 27.3472C107.287 27.5046 107.467 27.6497 107.726 27.7827C107.83 27.8358 107.998 27.9157 108.232 28.0224C108.439 28.1287 108.711 28.2618 109.048 28.4217C109.411 28.5817 109.864 28.7688 110.409 28.9829C109.393 29.0243 108.52 29.0541 107.791 29.0725C107.062 29.0648 106.463 29.0715 105.994 29.0926C105.447 29.1128 104.978 29.1339 104.587 29.1558C104.196 29.1517 103.727 29.1728 103.18 29.2191C102.71 29.2662 102.098 29.3118 101.342 29.3559C100.612 29.4003 99.7526 29.4433 98.7625 29.4849C99.2872 29.1259 99.7072 28.8048 100.023 28.5216C100.365 28.2127 100.628 27.9551 100.812 27.7487C101.023 27.4905 101.169 27.2576 101.249 27.0501C101.304 26.8163 101.347 26.4652 101.378 25.9967C101.408 25.5804 101.414 25.0335 101.395 24.3562C101.376 23.6528 101.321 22.7407 101.229 21.6199L90.9445 22.566C90.6795 23.0059 90.48 23.3945 90.3463 23.7316C90.2128 24.0427 90.1187 24.3152 90.0642 24.549C89.983 24.8346 89.9545 25.0687 89.9786 25.2513C90.0285 25.4601 90.117 25.7085 90.2442 25.9963C90.3717 26.2581 90.5506 26.5725 90.7811 26.9395C91.038 27.2808 91.4113 27.6884 91.9011 28.1624C91.2504 28.1294 90.5865 28.1094 89.9094 28.1023C89.2324 28.0951 88.6073 28.1015 88.0341 28.1215C87.3568 28.1404 86.6925 28.1594 86.0412 28.1786C85.3899 28.1977 84.6474 28.229 83.8136 28.2722C83.1099 28.3169 82.289 28.3733 81.3507 28.4415C80.3866 28.4834 79.3572 28.5507 78.2624 28.6433C78.9428 28.338 79.519 28.0315 79.991 27.724C80.4633 27.3904 80.8572 27.0821 81.1727 26.7989C81.5406 26.4903 81.8562 26.1941 82.1197 25.9105C82.3047 25.652 82.6756 25.0569 83.2323 24.1252C83.7894 23.1675 84.4133 22.0412 85.1041 20.7464C85.8209 19.4518 86.5648 18.0664 87.3356 16.59C88.1325 15.114 88.8503 13.7283 89.489 12.4329C90.128 11.1114 90.6479 9.97102 91.0487 9.01166C91.4495 8.0523 91.6514 7.4294 91.6544 7.14296C91.6059 6.80388 91.4797 6.42493 91.2758 6.00608C91.0973 5.63959 90.8153 5.21992 90.4297 4.74707C90.07 4.2745 89.5417 3.74805 88.8447 3.16774ZM100.79 18.7245C100.644 17.8114 100.509 17.0287 100.385 16.3763C100.262 15.6979 100.164 15.137 100.091 14.6934C99.9921 14.1715 99.9188 13.715 99.8708 13.3239C99.7965 12.9585 99.7104 12.4888 99.6122 11.9148C99.5133 11.4189 99.3896 10.8056 99.241 10.0748C99.1188 9.3183 98.9591 8.41812 98.7617 7.37431C97.2461 10.3272 96.0629 12.6195 95.2123 14.2513C94.388 15.8572 93.7896 17.0359 93.417 17.7872C92.965 18.6679 92.7121 19.1861 92.6584 19.3417L100.79 18.7245Z" fill="white"/>
</g>
<defs>
<filter id="filter0_dd_0_1" x="0.986687" y="0.0941544" width="112.715" height="33.2559" filterUnits="userSpaceOnUse" color-interpolation-filters="sRGB">
<feFlood flood-opacity="0" result="BackgroundImageFix"/>
<feColorMatrix in="SourceAlpha" type="matrix" values="0 0 0 0 0 0 0 0 0 0 0 0 0 0 0 0 0 0 127 0" result="hardAlpha"/>
<feOffset dx="3" dy="3"/>
<feComposite in2="hardAlpha" operator="out"/>
<feColorMatrix type="matrix" values="0 0 0 0 0 0 0 0 0 0.159455 0 0 0 0 0.956731 0 0 0 0.7 0"/>
<feBlend mode="normal" in2="BackgroundImageFix" result="effect1_dropShadow_0_1"/>
<feColorMatrix in="SourceAlpha" type="matrix" values="0 0 0 0 0 0 0 0 0 0 0 0 0 0 0 0 0 0 127 0" result="hardAlpha"/>
<feOffset dx="1" dy="1"/>
<feComposite in2="hardAlpha" operator="out"/>
<feColorMatrix type="matrix" values="0 0 0 0 0.0333303 0 0 0 0 0.113085 0 0 0 0 0.990385 0 0 0 0.25 0"/>
<feBlend mode="normal" in2="effect1_dropShadow_0_1" result="effect2_dropShadow_0_1"/>
<feBlend mode="normal" in="SourceGraphic" in2="effect2_dropShadow_0_1" result="shape"/>
</filter>
</defs>
</svg>
